# xmcd CD database file
#
# Track frame offsets:
#	150
#	31582
#	60245
#	98297
#	129577
#	161262
#	184395
#	214875
#	238842
#	280605
#
# Disc length: 4245 seconds
#
# Revision: 0
# Processed by: cddbd v1.5.2PL0 Copyright (c) Steve Scherf et al.
# Submitted via: CDex 1.97
#
DISCID=7910930a
DTITLE=Sweet Mary Cat - A Concert @ The Hot Club de Lyon
DYEAR=2002
DGENRE=Jazz
TTITLE0=Washington and Lee Swing
TTITLE1=I get the blues
TTITLE2=June Night
TTITLE3=Abide with me
TTITLE4=It feels so good
TTITLE5=Bogalusa strut
TTITLE6=Dream
TTITLE7=On a coconut island
TTITLE8=Just a closer walk with thee
TTITLE9=Climax Rag
EXTD=YEAR: 2002
EXTT0=
EXTT1=
EXTT2=
EXTT3=
EXTT4=
EXTT5=
EXTT6=
EXTT7=
EXTT8=
EXTT9=
PLAYORDER=
